<svg width="41" height="40" viewBox="0 0 41 40" fill="none" xmlns="http://www.w3.org/2000/svg">
    <path fill-rule="evenodd" clip-rule="evenodd" fill="#ABBCD3"
        d="M12.2745 2.79097C7.12053 2.79097 3.79053 6.32497 3.79053 11.777V28.205C3.79053 29.735 4.07453 31.101 4.56053 32.283C4.58151 32.2579 5.03912 31.7003 5.63611 30.9728C6.80308 29.5507 8.50262 27.4796 8.51453 27.469C9.89853 25.889 12.4965 23.533 15.9065 24.959C16.6538 25.2688 17.318 25.6932 17.9294 26.0839C17.9889 26.122 18.048 26.1597 18.1065 26.197C19.2525 26.963 19.9265 27.323 20.6265 27.263C20.9165 27.223 21.1885 27.137 21.4465 26.977C22.4198 26.377 24.943 22.8017 25.6986 21.7311C25.8094 21.5741 25.8822 21.471 25.9065 21.439C28.0865 18.599 31.4465 17.839 34.2465 19.519C34.6225 19.743 37.3165 21.625 38.2085 22.381V11.777C38.2085 6.32497 34.8785 2.79097 29.7065 2.79097H12.2745ZM29.706 0.000976562C36.46 0.000976562 40.998 4.72498 40.998 11.777V28.205C40.998 28.3823 40.9794 28.5487 40.9608 28.7149C40.9477 28.8317 40.9347 28.9485 40.928 29.069C40.9238 29.1418 40.9217 29.2147 40.9196 29.2875C40.9168 29.3847 40.914 29.4818 40.906 29.579C40.902 29.617 40.8945 29.6535 40.887 29.69C40.8795 29.7265 40.872 29.763 40.868 29.801C40.802 30.429 40.7 31.029 40.558 31.611C40.5245 31.7564 40.4857 31.8966 40.4466 32.0381L40.438 32.069C40.278 32.633 40.09 33.171 39.864 33.685C39.8244 33.7714 39.7827 33.8556 39.7409 33.9399C39.7131 33.996 39.6852 34.0522 39.658 34.109C39.414 34.599 39.15 35.069 38.844 35.505C38.7874 35.5857 38.7272 35.6613 38.6668 35.7371C38.627 35.7871 38.587 35.8373 38.548 35.889C38.23 36.301 37.898 36.695 37.522 37.053C37.447 37.1244 37.3658 37.1897 37.2847 37.255C37.234 37.2958 37.1833 37.3367 37.134 37.379C36.748 37.711 36.354 38.029 35.92 38.301C35.8253 38.3605 35.7247 38.4104 35.6245 38.4601C35.5596 38.4923 35.4949 38.5244 35.432 38.559C34.99 38.803 34.544 39.041 34.058 39.225C33.9411 39.2694 33.8167 39.3015 33.6919 39.3337C33.6033 39.3566 33.5145 39.3796 33.428 39.407C33.3848 39.4204 33.3415 39.4338 33.2983 39.4473C32.8642 39.5823 32.4315 39.7169 31.964 39.797C31.6932 39.8444 31.4058 39.8627 31.1182 39.8809C30.9937 39.8888 30.8693 39.8967 30.746 39.907C30.6136 39.9169 30.4837 39.9329 30.3537 39.9489C30.1422 39.9749 29.9302 40.001 29.706 40.001H12.274C11.522 40.001 10.804 39.925 10.11 39.811C10.084 39.807 10.06 39.803 10.036 39.799C7.33005 39.333 5.08405 38.027 3.51005 36.057C3.49911 36.057 3.49482 36.0496 3.4891 36.0398C3.48541 36.0334 3.48111 36.026 3.47405 36.019C1.89205 34.027 0.998047 31.349 0.998047 28.205V11.777C0.998047 4.72498 5.54005 0.000976562 12.274 0.000976562H29.706ZM18.9996 13.0301C18.9996 15.74 16.7322 18.0002 14.0093 18.0002C11.6159 18.0002 9.5752 16.2515 9.11784 13.9874C9.04226 13.6477 8.99962 13.2984 8.99962 12.9375C8.99962 10.2082 11.2167 8.00018 13.957 8.00018C15.3523 8.00018 16.6159 8.58694 17.5209 9.52305C18.4299 10.4264 18.9996 11.6713 18.9996 13.0301Z" />
</svg>
